<svg width="500" height="500" viewBox="0 0 500 500" fill="none" xmlns="http://www.w3.org/2000/svg">
<rect width="500" height="500" fill="black"/>
<path d="M151.415 294.886L177.807 267.579L144.996 223.303L103.221 164.192C88.4619 189.379 80 218.699 80 250C80 301.854 103.221 348.28 139.843 379.459L192.871 341.983C174.834 330.746 160.304 314.387 151.415 294.886Z" fill="white"/>
<path d="M205.114 151.415L232.421 177.807L276.697 144.996L335.808 103.221C310.621 88.4619 281.301 80 250 80C198.146 80 151.72 103.221 120.541 139.843L158.017 192.871C169.254 174.834 185.613 160.304 205.114 151.415Z" fill="white"/>
<path d="M322.193 232.421L355.004 276.697L396.779 335.808C411.538 310.621 420 281.301 420 250C420 198.146 396.779 151.72 360.157 120.541L307.129 158.017C325.166 169.254 339.696 185.613 348.585 205.114L322.193 232.421Z" fill="white"/>
<path d="M379.459 360.157L341.983 307.129C330.746 325.166 314.387 339.696 294.886 348.585L267.579 322.193L223.303 355.004L164.192 396.779C189.379 411.538 218.699 420 250 420C301.854 420 348.28 396.779 379.459 360.157Z" fill="white"/>
</svg>
