<svg width="1028" height="500" viewBox="0 0 1028 500" fill="none" xmlns="http://www.w3.org/2000/svg">
<g clip-path="url(#clip0)">
<path d="M743.722 122.422C690.359 122.422 656.054 163.677 656.054 246.637C656.054 328.924 690.583 370.628 743.722 370.628C796.861 370.628 831.839 328.924 831.839 246.637C831.839 164.35 796.861 122.422 743.722 122.422ZM685.874 246.861C685.874 185.426 704.933 149.327 743.498 149.327C755.157 149.327 765.247 152.691 773.991 159.641L698.206 314.574C690.135 298.206 685.874 275.785 685.874 246.861ZM743.722 344.17C732.063 344.17 722.197 340.807 713.677 334.305L789.462 179.596C797.758 196.413 801.794 218.61 801.794 246.861C801.794 307.848 782.287 344.17 743.722 344.17Z" fill="white"/>
<path d="M973.991 277.13L1022.87 194.17H992.601L952.242 262.556H939.91L900.449 194.17H869.507L917.713 278.251L864.126 366.368H895.964L939.686 294.17H951.794L994.619 366.368H1027.35L973.991 277.13Z" fill="white"/>
<path d="M105.022 316.009L143.834 275.852L95.583 210.74L34.148 123.812C12.4439 160.852 0 203.969 0 250C0 326.256 34.148 394.529 88.0045 440.381L165.987 385.269C139.462 368.744 118.094 344.686 105.022 316.009Z" fill="white"/>
<path d="M183.991 105.022L224.148 143.834L289.26 95.583L376.188 34.148C339.148 12.4439 296.031 0 250 0C173.744 0 105.471 34.148 59.6188 88.0045L114.731 165.987C131.256 139.462 155.314 118.094 183.991 105.022Z" fill="white"/>
<path d="M356.166 224.148L404.417 289.26L465.852 376.188C487.556 339.148 500 296.031 500 250C500 173.744 465.852 105.471 411.996 59.6188L334.013 114.731C360.538 131.256 381.906 155.314 394.978 183.991L356.166 224.148Z" fill="white"/>
<path d="M440.381 411.996L385.269 334.014C368.744 360.538 344.686 381.906 316.009 394.978L275.852 356.166L210.74 404.417L123.812 465.852C160.852 487.556 203.969 500 250 500C326.256 500 394.529 465.852 440.381 411.996Z" fill="white"/>
</g>
<defs>
<clipPath id="clip0">
<rect width="1027.35" height="500" fill="white"/>
</clipPath>
</defs>
</svg>
