<svg width="1911" height="304" viewBox="0 0 1911 304" fill="none" xmlns="http://www.w3.org/2000/svg">
<path d="M135.431 86.6658L111.169 63.2805C93.8382 71.156 79.304 84.0326 69.322 100.012L36.0224 53.025C63.7287 20.5773 104.976 0 151.049 0C178.858 0 204.905 7.49581 227.291 20.5773L174.772 57.5924L135.431 86.6658Z" fill="white"/>
<path d="M86.9022 166.218L63.4514 190.417C71.3511 207.698 84.2629 222.196 100.286 232.15L53.1728 265.357C20.6299 237.73 0 196.593 0 150.642C0 122.906 7.51829 96.9239 20.6299 74.6052L57.7492 126.986L86.9022 166.218Z" fill="white"/>
<path d="M244.344 174.292L215.191 135.06L238.641 110.861C230.742 93.5798 217.83 79.0822 201.807 69.128L248.92 35.9211C281.463 63.5483 302.093 104.685 302.093 150.636C302.093 178.372 294.575 204.354 281.463 226.673L244.344 174.292Z" fill="white"/>
<path d="M232.761 201.267L266.061 248.255L266.048 248.261C238.348 280.708 197.101 301.286 151.028 301.286C123.219 301.286 97.1714 293.784 74.7921 280.708L127.311 243.687L166.652 214.614L190.914 237.999C208.245 230.124 222.779 217.253 232.761 201.267Z" fill="white"/>
<path d="M1910.86 35.8661V260.405H1880.68V35.8661H1910.86Z" fill="white"/>
<path fill-rule="evenodd" clip-rule="evenodd" d="M457.565 36.1528C477.518 36.1528 494.666 41.1368 509.007 51.1049C523.348 60.8653 534.156 74.3638 541.43 91.6003C548.705 108.837 552.342 128.565 552.342 150.786C552.342 173.006 548.705 192.735 541.43 209.972C534.156 227.208 523.348 240.81 509.007 250.778C494.666 260.539 477.518 265.419 457.565 265.419C437.612 265.419 420.465 260.539 406.124 250.778C391.783 240.81 380.975 227.208 373.7 209.972C366.426 192.735 362.788 173.006 362.788 150.786C362.788 128.565 366.426 108.837 373.7 91.6003C380.975 74.3638 391.783 60.8653 406.124 51.1049C420.465 41.1368 437.612 36.1528 457.565 36.1528ZM457.565 78.5172C468.602 78.5172 477.604 82.1763 484.572 89.4944L417.094 186.964C414.145 176.664 412.671 164.605 412.671 150.786C412.671 128.773 416.412 111.225 423.895 98.1419C431.585 85.0588 442.808 78.5172 457.565 78.5172ZM457.565 223.055C446.516 223.055 437.448 219.387 430.36 212.053L497.886 114.514C500.935 124.834 502.46 136.925 502.46 150.786C502.46 172.799 498.615 190.347 490.924 203.43C483.442 216.513 472.322 223.055 457.565 223.055Z" fill="white"/>
<path d="M552.926 260.435L611.539 174.46L557.915 95.9614H614.033L636.48 136.768C638.974 141.129 640.221 145.49 640.221 149.851C640.221 151.72 640.533 153.278 641.156 154.524C641.988 155.77 643.339 156.393 645.209 156.393C647.08 156.393 648.327 155.77 648.95 154.524C649.782 153.278 650.198 151.72 650.198 149.851C650.198 145.49 651.445 141.129 653.939 136.768L676.386 95.9614H732.504L678.88 174.46L737.492 260.435H681.374L653.939 211.841C651.86 208.518 650.613 204.157 650.198 198.757V197.823C649.782 194.085 648.119 192.216 645.209 192.216C643.339 192.216 642.092 192.839 641.468 194.085C640.845 195.123 640.429 196.681 640.221 198.757C639.805 204.157 638.558 208.518 636.48 211.841L609.044 260.435H552.926Z" fill="white"/>
<path fill-rule="evenodd" clip-rule="evenodd" d="M883.85 40.8561C913.4 40.8561 934.672 46.9893 947.666 59.2557C960.869 71.5222 967.471 88.2586 967.471 109.465C967.471 122.771 964.537 134.622 958.669 145.017C953.01 155.412 944.313 163.521 932.577 169.342C920.84 175.163 906.275 178.074 888.88 178.074H834.18V260.405H801.487V40.8561H883.85ZM888.566 150.63C903.236 150.63 914.553 146.888 922.517 139.404C930.69 131.711 934.777 121.732 934.777 109.465C934.777 96.367 930.795 86.2835 922.831 79.2147C915.077 71.938 903.655 68.2997 888.566 68.2997H834.18V150.63H888.566Z" fill="white"/>
<path d="M1024.06 137.532C1023.64 137.948 1023.02 138.052 1022.18 137.844C1021.13 137.636 1020.61 137.013 1020.61 135.973C1020.61 134.934 1020.71 133.894 1020.92 132.854H1021.23V132.231C1023.54 124.538 1024.69 117.573 1024.69 111.336V100.733H994.514V260.405H1024.69V183.999C1024.69 169.654 1026.47 158.323 1030.04 150.007C1033.81 141.69 1039.99 135.869 1048.58 132.543C1057.39 129.008 1069.54 127.761 1085.05 128.8V98.2381C1071.85 98.2381 1061.47 99.4856 1053.93 101.98C1046.59 104.475 1040.93 108.322 1036.95 113.519C1032.97 118.509 1029.09 125.682 1025.32 135.038L1025.01 135.349C1024.8 136.181 1024.48 136.909 1024.06 137.532Z" fill="white"/>
<path fill-rule="evenodd" clip-rule="evenodd" d="M1206.06 109.153C1194.33 101.876 1180.6 98.2381 1164.88 98.2381C1149.16 98.2381 1135.33 101.876 1123.38 109.153C1111.65 116.43 1102.64 126.409 1096.35 139.092C1090.06 151.566 1086.92 165.392 1086.92 180.569C1086.92 195.746 1090.06 209.676 1096.35 222.358C1102.64 234.832 1111.65 244.708 1123.38 251.985C1135.33 259.261 1149.16 262.9 1164.88 262.9C1180.6 262.9 1194.33 259.261 1206.06 251.985C1218.01 244.708 1227.12 234.832 1233.41 222.358C1239.7 209.676 1242.84 195.746 1242.84 180.569C1242.84 165.392 1239.7 151.566 1233.41 139.092C1227.12 126.409 1218.01 116.43 1206.06 109.153ZM1190.34 228.283C1183.22 233.065 1174.73 235.456 1164.88 235.456C1155.03 235.456 1146.44 233.065 1139.1 228.283C1131.98 223.294 1126.53 216.641 1122.76 208.324C1118.98 200.008 1117.1 190.756 1117.1 180.569C1117.1 170.382 1118.98 161.13 1122.76 152.813C1126.53 144.497 1131.98 137.948 1139.1 133.166C1146.44 128.177 1155.03 125.682 1164.88 125.682C1174.73 125.682 1183.22 128.177 1190.34 133.166C1197.68 137.948 1203.23 144.497 1207 152.813C1210.78 161.13 1212.66 170.382 1212.66 180.569C1212.66 190.756 1210.78 200.008 1207 208.324C1203.23 216.641 1197.68 223.294 1190.34 228.283Z" fill="white"/>
<path d="M1244.52 100.733V126.929H1274.7V213.626C1274.7 225.061 1276.48 234.209 1280.05 241.07C1283.61 247.93 1288.95 252.92 1296.08 256.039C1303.2 258.949 1312.42 260.405 1323.74 260.405H1350.15V234.209H1326.26C1320.39 234.209 1315.88 233.481 1312.74 232.026C1309.81 230.57 1307.71 228.179 1306.45 224.853C1305.4 221.526 1304.88 216.745 1304.88 210.507V126.929H1350.15V100.733H1304.88V55.8253H1274.7V100.733H1244.52Z" fill="white"/>
<path fill-rule="evenodd" clip-rule="evenodd" d="M1481.29 109.153C1469.55 101.876 1455.83 98.2381 1440.11 98.2381C1424.39 98.2381 1410.56 101.876 1398.61 109.153C1386.88 116.43 1377.86 126.409 1371.58 139.092C1365.29 151.566 1362.15 165.392 1362.15 180.569C1362.15 195.746 1365.29 209.676 1371.58 222.358C1377.86 234.832 1386.88 244.708 1398.61 251.985C1410.56 259.261 1424.39 262.9 1440.11 262.9C1455.83 262.9 1469.55 259.261 1481.29 251.985C1493.24 244.708 1502.35 234.832 1508.64 222.358C1514.93 209.676 1518.07 195.746 1518.07 180.569C1518.07 165.392 1514.93 151.566 1508.64 139.092C1502.35 126.409 1493.24 116.43 1481.29 109.153ZM1465.57 228.283C1458.45 233.065 1449.96 235.456 1440.11 235.456C1430.26 235.456 1421.67 233.065 1414.33 228.283C1407.2 223.294 1401.76 216.641 1397.98 208.324C1394.21 200.008 1392.32 190.756 1392.32 180.569C1392.32 170.382 1394.21 161.13 1397.98 152.813C1401.76 144.497 1407.2 137.948 1414.33 133.166C1421.67 128.177 1430.26 125.682 1440.11 125.682C1449.96 125.682 1458.45 128.177 1465.57 133.166C1472.91 137.948 1478.46 144.497 1482.23 152.813C1486.01 161.13 1487.89 170.382 1487.89 180.569C1487.89 190.756 1486.01 200.008 1482.23 208.324C1478.46 216.641 1472.91 223.294 1465.57 228.283Z" fill="white"/>
<path d="M1544.34 139.092C1538.06 151.566 1534.91 165.392 1534.91 180.569C1534.91 195.746 1538.06 209.676 1544.34 222.358C1550.84 234.832 1560.06 244.708 1572.01 251.985C1583.95 259.261 1597.89 262.9 1613.82 262.9C1628.07 262.9 1640.43 260.093 1650.91 254.479C1661.39 248.658 1669.56 241.07 1675.43 231.714C1681.3 222.15 1684.76 211.755 1685.81 200.528H1656.26C1654.79 210.299 1650.39 218.616 1643.05 225.477C1635.72 232.13 1626.08 235.456 1614.13 235.456C1604.28 235.456 1595.58 232.961 1588.04 227.971C1580.7 222.982 1575.05 216.329 1571.06 208.012C1567.08 199.696 1565.09 190.548 1565.09 180.569C1565.09 170.589 1567.08 161.442 1571.06 153.125C1575.05 144.809 1580.7 138.156 1588.04 133.166C1595.58 128.177 1604.28 125.682 1614.13 125.682C1626.08 125.682 1635.72 129.112 1643.05 135.973C1650.39 142.626 1654.79 150.838 1656.26 160.61H1685.81C1684.76 149.383 1681.3 139.092 1675.43 129.736C1669.56 120.172 1661.29 112.584 1650.6 106.97C1640.12 101.149 1627.86 98.2381 1613.82 98.2381C1597.47 98.2381 1583.32 101.876 1571.38 109.153C1559.64 116.43 1550.63 126.409 1544.34 139.092Z" fill="white"/>
<path fill-rule="evenodd" clip-rule="evenodd" d="M1821.91 109.153C1810.17 101.876 1796.45 98.2381 1780.73 98.2381C1765.01 98.2381 1751.18 101.876 1739.23 109.153C1727.49 116.43 1718.48 126.409 1712.2 139.092C1705.91 151.566 1702.76 165.392 1702.76 180.569C1702.76 195.746 1705.91 209.676 1712.2 222.358C1718.48 234.832 1727.49 244.708 1739.23 251.985C1751.18 259.261 1765.01 262.9 1780.73 262.9C1796.45 262.9 1810.17 259.261 1821.91 251.985C1833.86 244.708 1842.97 234.832 1849.26 222.358C1855.55 209.676 1858.69 195.746 1858.69 180.569C1858.69 165.392 1855.55 151.566 1849.26 139.092C1842.97 126.409 1833.86 116.43 1821.91 109.153ZM1806.19 228.283C1799.07 233.065 1790.58 235.456 1780.73 235.456C1770.88 235.456 1762.28 233.065 1754.95 228.283C1747.82 223.294 1742.37 216.641 1738.6 208.324C1734.83 200.008 1732.94 190.756 1732.94 180.569C1732.94 170.382 1734.83 161.13 1738.6 152.813C1742.37 144.497 1747.82 137.948 1754.95 133.166C1762.28 128.177 1770.88 125.682 1780.73 125.682C1790.58 125.682 1799.07 128.177 1806.19 133.166C1813.53 137.948 1819.08 144.497 1822.85 152.813C1826.62 161.13 1828.51 170.382 1828.51 180.569C1828.51 190.756 1826.62 200.008 1822.85 208.324C1819.08 216.641 1813.53 223.294 1806.19 228.283Z" fill="white"/>
</svg>
