<svg width="500" height="500" viewBox="0 0 500 500" fill="none" xmlns="http://www.w3.org/2000/svg">
<rect width="500" height="500" rx="250" fill="black"/>
<path d="M125.319 306.768L158.697 272.233L117.201 216.236L64.3673 141.478C45.7018 173.333 35 210.413 35 250C35 315.58 64.3673 374.295 110.684 413.728L177.748 366.331C154.937 352.12 136.561 331.43 125.319 306.768Z" fill="white"/>
<path d="M193.232 125.319L227.767 158.697L283.764 117.201L358.522 64.3673C326.667 45.7018 289.587 35 250 35C184.42 35 125.705 64.3673 86.2722 110.684L133.669 177.748C147.88 154.937 168.57 136.561 193.232 125.319Z" fill="white"/>
<path d="M341.303 227.767L382.799 283.764L435.633 358.522C454.298 326.667 465 289.587 465 250C465 184.42 435.633 125.705 389.316 86.2722L322.252 133.669C345.063 147.88 363.439 168.57 374.681 193.232L341.303 227.767Z" fill="white"/>
<path d="M413.728 389.316L366.331 322.252C352.12 345.063 331.43 363.439 306.768 374.681L272.233 341.303L216.236 382.799L141.478 435.633C173.333 454.298 210.413 465 250 465C315.58 465 374.295 435.633 413.728 389.316Z" fill="white"/>
</svg>
