<svg width="500" height="500" viewBox="0 0 500 500" fill="none" xmlns="http://www.w3.org/2000/svg">
<rect width="500" height="500" rx="250" fill="white"/>
<path d="M123.58 307.56L157.423 272.543L115.348 215.765L61.777 139.964C42.8511 172.263 32 209.861 32 250C32 316.495 61.777 376.029 108.74 416.012L176.74 367.955C153.611 353.545 134.978 332.566 123.58 307.56Z" fill="black"/>
<path d="M192.44 123.58L227.457 157.423L284.235 115.348L360.036 61.777C327.737 42.8511 290.139 32 250 32C183.505 32 123.971 61.777 83.9876 108.74L132.045 176.74C146.455 153.611 167.434 134.978 192.44 123.58Z" fill="black"/>
<path d="M342.577 227.457L384.652 284.235L438.223 360.036C457.149 327.737 468 290.139 468 250C468 183.505 438.223 123.971 391.26 83.9876L323.26 132.045C346.389 146.455 365.022 167.434 376.42 192.44L342.577 227.457Z" fill="black"/>
<path d="M416.012 391.26L367.955 323.26C353.545 346.389 332.566 365.022 307.56 376.42L272.543 342.577L215.765 384.652L139.964 438.223C172.263 457.149 209.861 468 250 468C316.495 468 376.029 438.223 416.012 391.26Z" fill="black"/>
</svg>
