<svg width="749" height="500" viewBox="0 0 749 500" fill="none" xmlns="http://www.w3.org/2000/svg">
<g clip-path="url(#clip0)">
<path d="M176.513 0C69.0704 0 0 83.065 0 250.098C0 415.776 69.5218 499.744 176.513 499.744C283.504 499.744 353.929 415.776 353.929 250.098C353.929 84.4193 283.504 0 176.513 0ZM60.0415 250.549C60.0415 126.855 98.4139 54.1728 176.062 54.1728C199.537 54.1728 219.851 60.9444 237.458 74.9391L84.8707 386.884C68.6188 353.929 60.0415 308.785 60.0415 250.549ZM176.513 446.474C153.038 446.474 133.175 439.703 116.02 426.611L268.607 115.117C285.31 148.975 293.436 193.668 293.436 250.549C293.436 373.341 254.161 446.474 176.513 446.474Z" fill="white"/>
<path d="M640.142 311.494L738.556 144.461H677.612L596.352 282.15H571.523L492.07 144.461H429.771L526.831 313.751L418.937 491.167H483.041L571.072 345.803H595.45L681.675 491.167H747.585L640.142 311.494Z" fill="white"/>
</g>
<defs>
<clipPath id="clip0">
<rect width="748.322" height="500" fill="white"/>
</clipPath>
</defs>
</svg>
