<svg width="749" height="500" viewBox="0 0 749 500" fill="none" xmlns="http://www.w3.org/2000/svg">
<g clip-path="url(#clip0)">
<path fill-rule="evenodd" clip-rule="evenodd" d="M0 250.098C0 83.065 69.0704 0 176.513 0C283.504 0 353.929 84.4193 353.929 250.098C353.929 415.776 283.504 499.744 176.513 499.744C69.5218 499.744 0 415.776 0 250.098ZM176.062 54.1728C98.4139 54.1728 60.0415 126.855 60.0415 250.549C60.0415 308.785 68.6188 353.929 84.8707 386.884L237.458 74.9391C219.851 60.9444 199.537 54.1728 176.062 54.1728ZM116.02 426.611C133.175 439.703 153.038 446.474 176.513 446.474C254.161 446.474 293.436 373.341 293.436 250.549C293.436 193.668 285.31 148.975 268.607 115.117L116.02 426.611Z" fill="black"/>
<path d="M738.556 144.461L640.142 311.494L747.585 491.167H681.675L595.45 345.803H571.072L483.041 491.167H418.937L526.831 313.751L429.771 144.461H492.07L571.523 282.15H596.352L677.612 144.461H738.556Z" fill="black"/>
</g>
<defs>
<clipPath id="clip0">
<rect width="748.322" height="500" fill="white"/>
</clipPath>
</defs>
</svg>
