<svg width="1081" height="1081" viewBox="0 0 1081 1081" fill="none" xmlns="http://www.w3.org/2000/svg">
<path d="M331.827 635.432L387.719 577.603L318.237 483.847L229.768 358.67C198.518 412.007 180.6 474.098 180.6 540.38C180.6 650.191 229.768 748.498 307.33 814.52L419.618 735.164C381.429 711.376 350.655 676.73 331.827 635.432Z" fill="white"/>
<path d="M445.555 331.607L503.38 387.492L597.144 318.014L722.315 229.557C668.963 198.295 606.882 180.382 540.603 180.382C430.796 180.382 332.488 229.557 266.454 307.099L345.819 419.387C369.61 381.2 404.25 350.427 445.555 331.607Z" fill="white"/>
<path d="M693.476 503.142L762.959 596.898L851.427 722.075C882.677 668.738 900.596 606.647 900.596 540.365C900.596 430.553 851.427 332.247 773.866 266.225L661.578 345.581C699.767 369.369 730.54 404.015 749.368 445.313L693.476 503.142Z" fill="white"/>
<path d="M814.718 773.65L735.353 661.362C711.562 699.564 676.922 730.322 635.616 749.142L577.792 693.257L484.028 762.735L358.856 851.207C412.194 882.454 474.275 900.382 540.554 900.382C650.361 900.382 748.669 851.207 814.689 773.665L814.718 773.65Z" fill="white"/>
</svg>
