<svg width="1080" height="1081" viewBox="0 0 1080 1081" fill="none" xmlns="http://www.w3.org/2000/svg">
<path d="M331.228 635.432L387.119 577.603L317.637 483.847L229.168 358.67C197.919 412.007 180 474.098 180 540.38C180 650.191 229.168 748.498 306.73 814.52L419.018 735.164C380.829 711.376 350.055 676.73 331.228 635.432Z" fill="#26272B"/>
<path d="M444.956 331.607L502.781 387.492L596.544 318.014L721.716 229.557C668.363 198.295 606.282 180.382 540.003 180.382C430.197 180.382 331.888 229.557 265.854 307.099L345.219 419.387C369.01 381.2 403.65 350.427 444.956 331.607Z" fill="#26272B"/>
<path d="M692.877 503.142L762.359 596.898L850.828 722.075C882.077 668.738 899.996 606.647 899.996 540.365C899.996 430.553 850.828 332.247 773.266 266.225L660.978 345.581C699.167 369.369 729.941 404.015 748.768 445.313L692.877 503.142Z" fill="#26272B"/>
<path d="M814.118 773.65L734.753 661.362C710.962 699.564 676.322 730.322 635.017 749.142L577.192 693.257L483.428 762.735L358.257 851.207C411.595 882.454 473.676 900.382 539.955 900.382C649.762 900.382 748.07 851.207 814.089 773.665L814.118 773.65Z" fill="#26272B"/>
</svg>
