<svg width="500" height="500" viewBox="0 0 500 500" fill="none" xmlns="http://www.w3.org/2000/svg">
<path d="M105.022 316.009L143.834 275.852L95.583 210.74L34.148 123.812C12.4439 160.852 0 203.969 0 250C0 326.256 34.148 394.529 88.0045 440.381L165.987 385.269C139.462 368.744 118.094 344.686 105.022 316.009Z" fill="black"/>
<path d="M183.991 105.022L224.148 143.834L289.26 95.583L376.188 34.148C339.148 12.4439 296.031 0 250 0C173.744 0 105.471 34.148 59.6188 88.0045L114.731 165.987C131.256 139.462 155.314 118.094 183.991 105.022Z" fill="black"/>
<path d="M356.166 224.148L404.417 289.26L465.852 376.188C487.556 339.148 500 296.031 500 250C500 173.744 465.852 105.471 411.996 59.6188L334.013 114.731C360.538 131.256 381.906 155.314 394.978 183.991L356.166 224.148Z" fill="black"/>
<path d="M440.381 411.996L385.269 334.014C368.744 360.538 344.686 381.906 316.009 394.978L275.852 356.166L210.74 404.417L123.812 465.852C160.852 487.556 203.969 500 250 500C326.256 500 394.529 465.852 440.381 411.996Z" fill="black"/>
</svg>
