<svg width="1800" height="300" viewBox="0 0 1800 300" fill="none" xmlns="http://www.w3.org/2000/svg">
<path d="M19.6599 166.72V225.758H0V74.9526H54.9862C71.3011 74.9526 84.0664 79.1647 93.282 87.5887C102.566 96.0128 107.208 107.164 107.208 121.043C107.208 135.682 102.668 146.972 93.5891 154.912C84.5784 162.784 71.6425 166.72 54.7814 166.72H19.6599ZM19.6599 150.459H54.9862C65.4987 150.459 73.5538 147.973 79.1514 143.001C84.749 137.961 87.5478 130.71 87.5478 121.251C87.5478 112.274 84.749 105.093 79.1514 99.707C73.5538 94.3211 65.8742 91.5246 56.1125 91.3174H19.6599V150.459Z" fill="white"/>
<path d="M122.874 168.688C122.874 157.709 124.99 147.835 129.223 139.065C133.523 130.296 139.462 123.529 147.039 118.765C154.685 114 163.388 111.618 173.15 111.618C188.236 111.618 200.421 116.9 209.705 127.465C219.057 138.03 223.733 152.081 223.733 169.62V170.966C223.733 181.876 221.651 191.681 217.487 200.382C213.391 209.013 207.487 215.745 199.773 220.579C192.127 225.412 183.321 227.829 173.355 227.829C158.337 227.829 146.152 222.547 136.8 211.982C127.516 201.417 122.874 187.435 122.874 170.034V168.688ZM141.92 170.966C141.92 183.395 144.753 193.373 150.418 200.9C156.153 208.426 163.798 212.189 173.355 212.189C182.98 212.189 190.626 208.392 196.291 200.796C201.957 193.131 204.79 182.429 204.79 168.688C204.79 156.397 201.889 146.454 196.087 138.858C190.353 131.194 182.707 127.361 173.15 127.361C163.798 127.361 156.255 131.125 150.521 138.651C144.787 146.178 141.92 156.949 141.92 170.966Z" fill="white"/>
<path d="M345.584 199.346L366.882 113.69H385.825L353.57 225.758H338.211L311.281 140.826L285.068 225.758H269.709L237.557 113.69H256.397L278.208 197.585L304.011 113.69H319.268L345.584 199.346Z" fill="white"/>
<path d="M451.153 227.829C436.135 227.829 423.916 222.857 414.495 212.914C405.075 202.902 400.365 189.541 400.365 172.831V169.309C400.365 158.192 402.447 148.284 406.611 139.583C410.843 130.814 416.714 123.978 424.223 119.075C431.8 114.104 439.992 111.618 448.798 111.618C463.201 111.618 474.397 116.417 482.383 126.015C490.37 135.613 494.364 149.354 494.364 167.238V175.213H419.308C419.581 186.261 422.755 195.203 428.831 202.039C434.974 208.806 442.757 212.189 452.177 212.189C458.867 212.189 464.533 210.808 469.174 208.046C473.816 205.284 477.878 201.625 481.359 197.067L492.93 206.182C483.646 220.613 469.721 227.829 451.153 227.829ZM448.798 127.361C441.152 127.361 434.736 130.193 429.548 135.855C424.36 141.448 421.151 149.319 419.922 159.47H475.421V158.02C474.874 148.284 472.28 140.757 467.639 135.44C462.997 130.054 456.716 127.361 448.798 127.361Z" fill="white"/>
<path d="M569.931 130.883C567.064 130.4 563.958 130.158 560.613 130.158C548.189 130.158 539.759 135.509 535.322 146.212V225.758H516.379V113.69H534.81L535.117 126.636C541.329 116.624 550.135 111.618 561.535 111.618C565.221 111.618 568.02 112.101 569.931 113.068V130.883Z" fill="white"/>
<path d="M631.368 227.829C616.35 227.829 604.131 222.857 594.711 212.914C585.291 202.902 580.58 189.541 580.58 172.831V169.309C580.58 158.192 582.662 148.284 586.826 139.583C591.059 130.814 596.929 123.978 604.438 119.075C612.016 114.104 620.207 111.618 629.013 111.618C643.417 111.618 654.612 116.417 662.599 126.015C670.586 135.613 674.579 149.354 674.579 167.238V175.213H599.524C599.797 186.261 602.971 195.203 609.046 202.039C615.19 208.806 622.972 212.189 632.392 212.189C639.082 212.189 644.748 210.808 649.39 208.046C654.032 205.284 658.093 201.625 661.575 197.067L673.146 206.182C663.862 220.613 649.936 227.829 631.368 227.829ZM629.013 127.361C621.368 127.361 614.951 130.193 609.763 135.855C604.575 141.448 601.367 149.319 600.138 159.47H655.636V158.02C655.09 148.284 652.496 140.757 647.854 135.44C643.212 130.054 636.932 127.361 629.013 127.361Z" fill="white"/>
<path d="M691.986 168.791C691.986 151.598 696.014 137.788 704.069 127.361C712.124 116.866 722.671 111.618 735.709 111.618C748.679 111.618 758.953 116.106 766.53 125.083V66.6666H785.473V225.758H768.066L767.144 213.743C759.567 223.134 749.02 227.829 735.504 227.829C722.671 227.829 712.192 222.512 704.069 211.879C696.014 201.245 691.986 187.366 691.986 170.241V168.791ZM710.929 170.966C710.929 183.672 713.523 193.615 718.711 200.796C723.899 207.977 731.067 211.568 740.214 211.568C752.229 211.568 761.001 206.113 766.53 195.203V143.726C760.864 133.162 752.16 127.879 740.419 127.879C731.135 127.879 723.899 131.504 718.711 138.755C713.523 146.005 710.929 156.742 710.929 170.966Z" fill="white"/>
<path d="M960.773 170.966C960.773 188.091 956.882 201.866 949.1 212.293C941.318 222.65 930.874 227.829 917.768 227.829C903.774 227.829 892.954 222.823 885.308 212.811L884.387 225.758H866.98V66.6666H885.923V126.015C893.568 116.417 904.115 111.618 917.563 111.618C931.011 111.618 941.557 116.762 949.203 127.051C956.917 137.339 960.773 151.425 960.773 169.309V170.966ZM941.83 168.791C941.83 155.741 939.339 145.66 934.356 138.548C929.372 131.435 922.205 127.879 912.853 127.879C900.36 127.879 891.384 133.749 885.923 145.487V193.96C891.725 205.699 900.77 211.568 913.057 211.568C922.136 211.568 929.202 208.012 934.253 200.9C939.305 193.787 941.83 183.085 941.83 168.791Z" fill="white"/>
<path d="M1019.75 197.689L1045.56 113.69H1065.83L1021.29 243.055C1014.39 261.698 1003.44 271.02 988.42 271.02L984.836 270.709L977.771 269.363V253.826L982.891 254.241C989.308 254.241 994.291 252.929 997.84 250.305C1001.46 247.681 1004.43 242.882 1006.75 235.908L1010.95 224.515L971.423 113.69H992.106L1019.75 197.689Z" fill="white"/>
<path d="M1213.01 189.605L1236.3 165.511L1207.35 126.444L1170.49 74.287C1157.47 96.5112 1150 122.381 1150 150C1150 195.753 1170.49 236.717 1202.8 264.229L1249.59 231.161C1233.68 221.247 1220.86 206.812 1213.01 189.605Z" fill="white"/>
<path d="M1260.39 63.0134L1284.49 86.3004L1323.56 57.3498L1375.71 20.4888C1353.49 7.46637 1327.62 0 1300 0C1254.25 0 1213.28 20.4888 1185.77 52.8027L1218.84 99.5919C1228.75 83.6771 1243.19 70.8565 1260.39 63.0134Z" fill="white"/>
<path d="M1363.7 134.489L1392.65 173.556L1429.51 225.713C1442.53 203.489 1450 177.619 1450 150C1450 104.247 1429.51 63.2825 1397.2 35.7713L1350.41 68.8386C1366.32 78.7534 1379.14 93.1883 1386.99 110.395L1363.7 134.489Z" fill="white"/>
<path d="M1414.23 247.197L1381.16 200.408C1371.25 216.323 1356.81 229.144 1339.61 236.987L1315.51 213.7L1276.44 242.65L1224.29 279.511C1246.51 292.534 1272.38 300 1300 300C1345.75 300 1386.72 279.511 1414.23 247.197Z" fill="white"/>
<path d="M1595.81 64.9475C1560.24 64.9475 1537.37 92.4513 1537.37 147.758C1537.37 202.616 1560.39 230.418 1595.81 230.418C1631.24 230.418 1654.56 202.616 1654.56 147.758C1654.56 92.8997 1631.24 64.9475 1595.81 64.9475ZM1557.25 147.907C1557.25 106.951 1569.95 82.8847 1595.66 82.8847C1603.43 82.8847 1610.16 85.1269 1615.99 89.7607L1565.47 193.049C1560.09 182.137 1557.25 167.19 1557.25 147.907ZM1595.81 212.78C1588.04 212.78 1581.46 210.538 1575.78 206.203L1626.3 103.064C1631.84 114.275 1634.53 129.073 1634.53 147.907C1634.53 188.565 1621.52 212.78 1595.81 212.78Z" fill="white"/>
<path d="M1749.33 168.087L1781.91 112.781H1761.73L1734.83 158.371H1726.61L1700.3 112.781H1679.67L1711.81 168.835L1676.08 227.579H1697.31L1726.46 179.447H1734.53L1763.08 227.579H1784.9L1749.33 168.087Z" fill="white"/>
</svg>
