<svg width="1080" height="1080" viewBox="0 0 1080 1080" fill="none" xmlns="http://www.w3.org/2000/svg">
<g clip-path="url(#clip0_1011_2490)">
<path d="M0 362.323C0 235.498 0 172.085 24.6818 123.645C46.3924 81.0351 81.0351 46.3924 123.645 24.6818C172.085 0 235.498 0 362.323 0H717.677C844.502 0 907.915 0 956.355 24.6818C998.965 46.3924 1033.61 81.0351 1055.32 123.645C1080 172.085 1080 235.498 1080 362.323V717.677C1080 844.502 1080 907.915 1055.32 956.355C1033.61 998.965 998.965 1033.61 956.355 1055.32C907.915 1080 844.502 1080 717.677 1080H362.323C235.498 1080 172.085 1080 123.645 1055.32C81.0351 1033.61 46.3924 998.965 24.6818 956.355C0 907.915 0 844.502 0 717.677V362.323Z" fill="#26272B"/>
<path d="M331.23 635.05L387.121 577.221L317.639 483.465L229.17 358.288C197.921 411.625 180.002 473.716 180.002 539.998C180.002 649.81 229.17 748.116 306.732 814.139L419.02 734.782C380.831 710.994 350.057 676.348 331.23 635.05Z" fill="white"/>
<path d="M444.958 331.225L502.783 387.11L596.546 317.632L721.718 229.175C668.365 197.913 606.284 180 540.005 180C430.198 180 331.89 229.175 265.856 306.717L345.221 419.006C369.012 380.818 403.652 350.046 444.958 331.225Z" fill="white"/>
<path d="M692.879 502.76L762.361 596.517L850.83 721.693C882.079 668.357 899.998 606.265 899.998 539.983C899.998 430.172 850.83 331.865 773.268 265.843L660.98 345.199C699.169 368.987 729.943 403.633 748.77 444.931L692.879 502.76Z" fill="white"/>
<path d="M814.12 773.268L734.755 660.98C710.964 699.182 676.324 729.94 635.019 748.76L577.194 692.875L483.43 762.354L358.259 850.825C411.597 882.072 473.677 900 539.957 900C649.763 900 748.072 850.825 814.091 773.283L814.12 773.268Z" fill="white"/>
</g>
<defs>
<clipPath id="clip0_1011_2490">
<rect width="1080" height="1080" fill="white"/>
</clipPath>
</defs>
</svg>
