<svg width="1080" height="1080" viewBox="0 0 1080 1080" fill="none" xmlns="http://www.w3.org/2000/svg">
<rect width="1080" height="1080" fill="#26272B"/>
<path d="M331.228 635.05L387.119 577.221L317.637 483.465L229.168 358.288C197.919 411.625 180 473.716 180 539.998C180 649.81 229.168 748.116 306.73 814.139L419.018 734.782C380.829 710.994 350.055 676.348 331.228 635.05Z" fill="white"/>
<path d="M444.956 331.225L502.781 387.11L596.544 317.632L721.716 229.175C668.363 197.913 606.282 180 540.003 180C430.197 180 331.888 229.175 265.854 306.717L345.219 419.006C369.01 380.818 403.65 350.046 444.956 331.225Z" fill="white"/>
<path d="M692.877 502.76L762.359 596.517L850.828 721.693C882.077 668.357 899.996 606.265 899.996 539.983C899.996 430.172 850.828 331.865 773.266 265.843L660.978 345.199C699.167 368.987 729.941 403.633 748.768 444.931L692.877 502.76Z" fill="white"/>
<path d="M814.118 773.268L734.753 660.98C710.962 699.182 676.322 729.94 635.017 748.76L577.192 692.875L483.428 762.354L358.257 850.825C411.595 882.072 473.676 900 539.955 900C649.762 900 748.07 850.825 814.089 773.283L814.118 773.268Z" fill="white"/>
</svg>
