<svg width="1265" height="393" viewBox="0 0 1265 393" fill="none" xmlns="http://www.w3.org/2000/svg">
<rect y="0.309082" width="1264.33" height="392.037" rx="108.899" fill="white"/>
<path d="M213.377 177.34C212.273 177.892 211.515 178.444 211.101 178.996C210.825 179.547 210.687 180.306 210.687 181.272C210.687 182.513 210.963 183.479 211.515 184.168C212.204 184.72 213.032 185.065 213.998 185.203C219.929 186.444 224.826 188.582 228.688 191.617C232.688 194.652 235.585 198.238 237.378 202.376C239.309 206.514 240.275 211.066 240.275 216.032C240.275 228.447 236.206 238.516 228.067 246.241C220.067 253.965 208.825 257.828 194.341 257.828H114.475V112.164H182.341C198.617 112.164 211.239 115.406 220.205 121.889C229.171 128.372 233.654 138.028 233.654 150.856C233.654 156.787 231.792 162.029 228.067 166.581C224.343 171.133 219.446 174.719 213.377 177.34ZM149.235 141.131V169.271H179.444C183.582 169.271 187.099 168.65 189.996 167.409C192.893 166.167 195.1 164.443 196.617 162.236C198.135 160.029 198.893 157.408 198.893 154.374C198.893 149.822 197.376 146.511 194.341 144.442C191.307 142.235 186.617 141.131 180.272 141.131H149.235ZM183.996 228.86C191.031 228.86 196.341 227.55 199.928 224.929C203.652 222.17 205.514 218.239 205.514 213.135C205.514 208.308 203.514 204.514 199.514 201.755C195.652 198.859 190.203 197.41 183.168 197.41H149.235V228.86H183.996ZM295.45 261.138C283.311 261.138 273.725 257.207 266.69 249.344C259.655 241.482 256.137 229.964 256.137 214.791V148.58H289.243V201.549C289.243 209.687 289.863 216.032 291.105 220.584C292.346 225.136 294.208 228.378 296.691 230.309C299.174 232.102 302.485 232.999 306.623 232.999C311.175 232.999 315.382 231.205 319.244 227.619C323.245 224.033 326.417 218.998 328.762 212.515C331.107 206.032 332.28 198.721 332.28 190.582V148.58H365.385V257.828H332.28V252.655C332.28 250.31 332.486 248.241 332.9 246.448C333.452 244.517 334.142 242.654 334.969 240.861C335.107 240.723 335.176 240.585 335.176 240.447C335.314 240.171 335.452 239.965 335.59 239.827C336.556 237.758 337.107 236.102 337.245 234.861C337.521 233.619 337.107 232.792 336.004 232.378C335.038 231.964 334.28 232.033 333.728 232.585C333.176 233.137 332.555 234.033 331.866 235.275C331.866 235.275 331.797 235.344 331.659 235.482C329.59 239.62 326.9 243.62 323.589 247.482C320.279 251.345 316.21 254.586 311.382 257.207C306.554 259.828 301.243 261.138 295.45 261.138ZM387.852 257.828V148.58H420.958V257.828H387.852ZM387.852 135.338V108.854H420.958V135.338H387.852ZM387.852 257.828V231.343H420.958V257.828H387.852ZM387.852 175.064V148.58H405.233V175.064H387.852ZM476.419 108.854V257.828H443.313V108.854H476.419ZM444.141 257.828V231.343H475.591V257.828H444.141ZM444.141 135.338V108.854H460.694V135.338H444.141ZM487.226 175.064V148.58H569.99V175.064H487.226ZM540.195 220.584C540.195 224.308 540.333 226.86 540.609 228.24C541.022 229.619 541.85 230.516 543.092 230.93C544.333 231.205 546.678 231.343 550.126 231.343H569.99V257.828H539.367C531.781 257.828 525.642 256.862 520.952 254.931C516.262 252.862 512.745 249.413 510.4 244.586C508.193 239.758 507.09 232.999 507.09 224.309V118.785H540.195V220.584ZM698.997 145.27C710.722 145.27 720.929 147.89 729.619 153.132C738.447 158.236 745.206 165.202 749.896 174.03C754.586 182.858 756.931 192.583 756.931 203.204C756.931 213.825 754.586 223.55 749.896 232.378C745.206 241.206 738.447 248.241 729.619 253.483C720.929 258.586 710.722 261.138 698.997 261.138C687.272 261.138 676.996 258.586 668.168 253.483C659.478 248.241 652.787 241.206 648.098 232.378C643.408 223.55 641.063 213.825 641.063 203.204C641.063 192.583 643.408 182.858 648.098 174.03C652.787 165.202 659.478 158.236 668.168 153.132C676.996 147.89 687.272 145.27 698.997 145.27ZM698.997 232.999C704.239 232.999 708.722 231.688 712.446 229.067C716.17 226.309 718.998 222.722 720.929 218.308C722.86 213.756 723.826 208.721 723.826 203.204C723.826 197.686 722.86 192.721 720.929 188.306C718.998 183.754 716.17 180.168 712.446 177.547C708.722 174.788 704.239 173.409 698.997 173.409C693.755 173.409 689.272 174.788 685.548 177.547C681.824 180.168 678.996 183.754 677.065 188.306C675.134 192.721 674.168 197.686 674.168 203.204C674.168 208.721 675.134 213.756 677.065 218.308C678.996 222.722 681.824 226.309 685.548 229.067C689.272 231.688 693.755 232.999 698.997 232.999ZM840.972 145.27C853.11 145.27 862.697 149.201 869.732 157.063C876.767 164.926 880.284 176.444 880.284 191.617V257.828H847.179V204.859C847.179 196.721 846.558 190.376 845.317 185.824C844.075 181.272 842.213 178.099 839.73 176.306C837.247 174.375 833.937 173.409 829.799 173.409C825.247 173.409 820.97 175.202 816.97 178.789C813.108 182.375 810.004 187.41 807.659 193.893C805.314 200.376 804.142 207.687 804.142 215.825V257.828H771.037V148.58H804.142V153.753C804.142 156.098 803.866 158.236 803.314 160.167C802.9 161.96 802.28 163.753 801.452 165.547C801.314 165.684 801.176 165.891 801.038 166.167C801.038 166.305 801.038 166.443 801.038 166.581C800.073 168.512 799.452 170.168 799.176 171.547C798.9 172.788 799.314 173.616 800.418 174.03C801.383 174.444 802.142 174.375 802.694 173.823C803.383 173.271 804.004 172.375 804.556 171.133C804.694 170.995 804.763 170.926 804.763 170.926C806.694 166.788 809.315 162.788 812.625 158.925C816.074 155.063 820.212 151.822 825.04 149.201C829.867 146.58 835.178 145.27 840.972 145.27Z" fill="#26272B"/>
<path d="M987.739 225.083L1004.65 207.59L983.628 179.228L956.866 141.362C947.413 157.497 941.993 176.279 941.993 196.33C941.993 229.548 956.866 259.286 980.329 279.257L1014.3 255.252C1002.74 248.056 993.435 237.576 987.739 225.083Z" fill="#26272B"/>
<path d="M1022.15 133.174L1039.64 150.079L1068 129.062L1105.87 102.304C1089.73 92.847 1070.95 87.4282 1050.9 87.4282C1017.68 87.4282 987.942 102.304 967.967 125.76L991.975 159.728C999.171 148.176 1009.65 138.867 1022.15 133.174Z" fill="#26272B"/>
<path d="M1097.14 185.061L1118.16 213.422L1144.92 251.288C1154.37 235.154 1159.79 216.371 1159.79 196.321C1159.79 163.103 1144.92 133.365 1121.45 113.393L1087.49 137.399C1099.04 144.594 1108.35 155.075 1114.04 167.568L1097.14 185.061Z" fill="#26272B"/>
<path d="M1133.82 266.891L1109.81 232.923C1102.62 244.48 1092.14 253.784 1079.64 259.477L1062.15 242.572L1033.79 263.589L995.923 290.352C1012.06 299.804 1030.84 305.227 1050.89 305.227C1084.1 305.227 1113.84 290.352 1133.81 266.895L1133.82 266.891Z" fill="#26272B"/>
</svg>
