<svg width="1265" height="393" viewBox="0 0 1265 393" fill="none" xmlns="http://www.w3.org/2000/svg">
<rect width="1264.33" height="392.037" rx="108.899" fill="#26272B"/>
<path d="M213.377 177.031C224.757 172.065 233.654 163.168 233.654 150.547C233.654 124.477 214.204 111.855 182.341 111.855H114.475V257.519H194.341C224.136 257.519 240.275 239.724 240.275 215.723C240.275 201.446 232.412 188.825 213.998 184.894C212.342 184.687 210.687 183.652 210.687 180.963C210.687 179.1 211.101 178.066 213.377 177.031ZM149.235 140.822H180.272C192.893 140.822 198.893 144.96 198.893 154.064C198.893 162.961 192.065 168.962 179.444 168.962H149.235V140.822ZM183.996 228.551H149.235V197.101H183.168C197.238 197.101 205.514 203.309 205.514 212.826C205.514 222.965 198.066 228.551 183.996 228.551ZM295.45 260.829C314.279 260.829 326.279 245.932 331.659 235.172C332.486 233.517 333.521 231.034 336.004 232.069C338.694 233.103 336.625 237.242 334.969 240.552C333.314 243.863 332.28 247.38 332.28 252.346V257.519H365.385V148.271H332.28V190.273C332.28 215.516 320.072 232.69 306.623 232.69C294.829 232.69 289.243 225.862 289.243 201.24V148.271H256.137V214.482C256.137 245.518 271.862 260.829 295.45 260.829ZM387.852 135.029H420.958V108.545H387.852V135.029ZM387.852 257.519H420.958V148.271H387.852V257.519ZM443.313 108.545V257.519H476.419V108.545H443.313ZM569.99 174.755V148.271H540.195V118.476H507.09V148.271H487.226V174.755H507.09V223.999C507.09 250.277 517.435 257.519 539.367 257.519H569.99V231.034H550.126C540.609 231.034 540.195 230.62 540.195 220.275V174.755H569.99ZM698.997 144.96C662.995 144.96 641.063 171.031 641.063 202.895C641.063 234.759 662.995 260.829 698.997 260.829C734.999 260.829 756.931 234.759 756.931 202.895C756.931 171.031 734.999 144.96 698.997 144.96ZM698.997 232.69C682.651 232.69 674.168 219.034 674.168 202.895C674.168 186.756 682.651 173.1 698.997 173.1C715.343 173.1 723.826 186.756 723.826 202.895C723.826 219.034 715.343 232.69 698.997 232.69ZM840.972 144.96C822.143 144.96 809.935 159.651 804.763 170.617C803.935 172.272 802.9 174.755 800.418 173.721C797.728 172.686 799.797 168.548 801.452 165.237C803.107 161.927 804.142 158.409 804.142 153.444V148.271H771.037V257.519H804.142V215.516C804.142 190.273 816.349 173.1 829.799 173.1C841.592 173.1 847.179 179.928 847.179 204.55V257.519H880.284V191.308C880.284 160.272 864.559 144.96 840.972 144.96Z" fill="white"/>
<path d="M987.739 224.774L1004.65 207.281L983.628 178.92L956.866 141.054C947.413 157.188 941.993 175.971 941.993 196.021C941.993 229.239 956.866 258.977 980.329 278.949L1014.3 254.943C1002.74 247.747 993.435 237.267 987.739 224.774Z" fill="white"/>
<path d="M1022.15 132.865L1039.64 149.77L1068 128.753L1105.87 101.995C1089.73 92.5379 1070.95 87.1191 1050.9 87.1191C1017.68 87.1191 987.942 101.995 967.967 125.451L991.975 159.419C999.171 147.867 1009.65 138.558 1022.15 132.865Z" fill="white"/>
<path d="M1097.14 184.751L1118.16 213.113L1144.92 250.979C1154.37 234.844 1159.79 216.062 1159.79 196.011C1159.79 162.793 1144.92 133.055 1121.45 113.083L1087.49 137.089C1099.04 144.285 1108.35 154.765 1114.04 167.258L1097.14 184.751Z" fill="white"/>
<path d="M1133.82 266.581L1109.81 232.613C1102.62 244.17 1092.14 253.474 1079.64 259.167L1062.15 242.262L1033.79 263.279L995.923 290.042C1012.06 299.494 1030.84 304.917 1050.89 304.917C1084.1 304.917 1113.84 290.042 1133.81 266.585L1133.82 266.581Z" fill="white"/>
</svg>
